<?xml version="1.0" standalone="no"?>
<!DOCTYPE svg PUBLIC "-//W3C//DTD SVG 20010904//EN"
 "http://www.w3.org/TR/2001/REC-SVG-20010904/DTD/svg10.dtd">
<svg version="1.0" xmlns="http://www.w3.org/2000/svg"
 width="360.000000pt" height="300.000000pt" viewBox="0 0 360.000000 300.000000"
 preserveAspectRatio="xMidYMid meet">

<g transform="translate(0.000000,300.000000) scale(0.100000,-0.100000)"
fill="#000000" stroke="none">
<path d="M1400 2950 l0 -50 -100 0 -100 0 0 -50 0 -50 -100 0 -100 0 0 -50 c0
-27 -4 -50 -10 -50 -6 0 -10 30 -10 70 l0 70 -85 0 -85 0 0 -93 c0 -52 -3
-128 -6 -170 l-7 -77 -48 0 -49 0 0 -50 0 -50 -50 0 -50 0 0 -100 0 -100 -50
0 -50 0 0 -400 0 -400 50 0 50 0 0 -100 0 -100 50 0 50 0 0 -50 0 -50 -200 0
-200 0 0 -50 0 -50 -100 0 -100 0 0 -100 0 -100 -50 0 -50 0 0 -100 0 -100 50
0 50 0 0 -50 0 -50 50 0 50 0 0 -50 0 -50 50 0 50 0 0 -50 0 -50 200 0 200 0
0 50 0 50 50 0 50 0 0 -100 0 -100 50 0 50 0 0 -50 0 -50 100 0 100 0 0 -50 0
-50 150 0 150 0 0 50 0 50 100 0 100 0 0 50 0 50 50 0 50 0 0 100 0 100 100 0
100 0 0 -100 0 -100 50 0 50 0 0 -50 0 -50 100 0 100 0 0 -50 0 -50 150 0 150
0 0 50 0 50 100 0 100 0 0 50 0 50 50 0 50 0 0 100 0 100 50 0 50 0 0 -50 0
-50 200 0 200 0 0 50 0 50 50 0 50 0 0 50 0 50 50 0 50 0 0 50 0 50 50 0 50 0
0 100 0 100 -50 0 -50 0 0 100 0 100 -100 0 -100 0 0 50 0 50 -200 0 -200 0 0
50 0 50 50 0 50 0 0 100 0 100 50 0 50 0 0 400 0 400 -50 0 -50 0 0 100 0 100
-50 0 -50 0 0 50 0 50 -50 0 -50 0 0 50 0 50 -50 0 -50 0 0 50 0 50 -50 0 -50
0 0 50 0 50 -100 0 -100 0 0 50 0 50 -100 0 -100 0 0 50 0 50 -400 0 -400 0 0
-50z m-460 -440 c0 -263 0 -270 -20 -270 -13 0 -20 -7 -20 -20 0 -15 -7 -20
-25 -20 l-25 0 0 290 0 290 45 0 45 0 0 -270z m1630 -290 c0 -17 7 -20 45 -20
41 0 45 -2 45 -25 0 -18 5 -25 20 -25 13 0 20 -7 20 -20 0 -13 7 -20 20 -20
13 0 20 -7 20 -20 0 -15 7 -20 25 -20 l25 0 0 -265 0 -265 -25 0 c-23 0 -25
-4 -25 -45 0 -38 -3 -45 -20 -45 -13 0 -20 -7 -20 -20 0 -13 -7 -20 -20 -20
-15 0 -20 -7 -20 -25 0 -23 -4 -25 -45 -25 -38 0 -45 -3 -45 -20 0 -20 -7 -20
-310 -20 -303 0 -310 0 -310 20 0 13 -7 20 -20 20 -15 0 -20 7 -20 25 l0 25
-110 0 -110 0 0 -25 c0 -20 -5 -25 -25 -25 -18 0 -25 -5 -25 -20 0 -20 -7 -20
-305 -20 -298 0 -305 0 -305 20 0 17 -7 20 -45 20 -41 0 -45 2 -45 25 0 18 -5
25 -20 25 -13 0 -20 7 -20 20 0 15 -7 20 -25 20 -23 0 -25 4 -25 45 0 38 -3
45 -20 45 -19 0 -20 7 -20 265 0 258 1 265 20 265 13 0 20 7 20 20 0 15 7 20
25 20 18 0 25 5 25 20 0 13 7 20 20 20 15 0 20 7 20 25 0 23 4 25 45 25 38 0
45 3 45 20 0 20 7 20 770 20 763 0 770 0 770 -20z m-1670 -880 c0 -13 7 -20
20 -20 19 0 20 -7 20 -250 0 -243 1 -250 20 -250 13 0 20 -7 20 -20 0 -15 7
-20 25 -20 18 0 25 -5 25 -20 0 -20 7 -20 330 -20 323 0 330 0 330 20 0 13 7
20 20 20 17 0 20 7 20 45 0 41 2 45 25 45 25 0 25 1 25 85 0 78 2 85 20 85 19
0 20 -7 20 -130 0 -123 -1 -130 -20 -130 -13 0 -20 -7 -20 -20 0 -15 -7 -20
-25 -20 -20 0 -25 -5 -25 -25 0 -18 -5 -25 -20 -25 -13 0 -20 -7 -20 -20 0
-20 -7 -20 -355 -20 -348 0 -355 0 -355 20 0 13 -7 20 -20 20 -15 0 -20 7 -20
25 0 18 -5 25 -20 25 -17 0 -20 7 -20 40 0 36 -2 40 -25 40 l-25 0 0 270 0
270 25 0 c18 0 25 -5 25 -20z m1050 -205 l0 -45 -155 0 -155 0 0 45 0 45 155
0 155 0 0 -45z"/>
<path d="M1030 2130 c0 -15 -7 -20 -25 -20 -18 0 -25 -5 -25 -20 0 -13 -7 -20
-20 -20 -15 0 -20 -7 -20 -25 0 -18 -5 -25 -20 -25 -17 0 -20 -7 -20 -45 0
-41 -2 -45 -25 -45 l-25 0 0 -130 0 -130 25 0 c23 0 25 -4 25 -45 0 -38 3 -45
20 -45 17 0 20 -7 20 -45 0 -38 3 -45 20 -45 13 0 20 -7 20 -20 0 -15 7 -20
25 -20 18 0 25 -5 25 -20 0 -20 7 -20 330 -20 323 0 330 0 330 20 0 13 7 20
20 20 13 0 20 7 20 20 0 18 7 20 65 20 58 0 65 -2 65 -20 0 -15 7 -20 25 -20
18 0 25 -5 25 -20 0 -20 7 -20 330 -20 323 0 330 0 330 20 0 13 7 20 20 20 13
0 20 7 20 20 0 15 7 20 25 20 23 0 25 4 25 45 0 38 3 45 20 45 17 0 20 7 20
45 0 38 3 45 20 45 19 0 20 7 20 130 0 123 -1 130 -20 130 -17 0 -20 7 -20 45
0 38 -3 45 -20 45 -15 0 -20 7 -20 25 0 20 -5 25 -25 25 -18 0 -25 5 -25 20 0
13 -7 20 -20 20 -13 0 -20 7 -20 20 0 20 -7 20 -770 20 -763 0 -770 0 -770
-20z m270 -280 l0 -50 -50 0 -50 0 0 50 0 50 50 0 50 0 0 -50z m1200 0 l0 -50
-50 0 -50 0 0 50 0 50 50 0 50 0 0 -50z"/>
</g>
</svg>
