<?xml version="1.0" standalone="no"?>
<!DOCTYPE svg PUBLIC "-//W3C//DTD SVG 20010904//EN"
 "http://www.w3.org/TR/2001/REC-SVG-20010904/DTD/svg10.dtd">
<svg version="1.0" xmlns="http://www.w3.org/2000/svg"
 width="487.000000pt" height="491.000000pt" viewBox="0 0 487.000000 491.000000"
 preserveAspectRatio="xMidYMid meet">

<g transform="translate(0.000000,491.000000) scale(0.100000,-0.100000)"
fill="#FFFFFF" stroke="none">
<path d="M2295 4894 c-226 -17 -420 -53 -590 -110 -387 -128 -722 -338 -1005
-630 -363 -374 -596 -850 -676 -1379 -25 -166 -26 -523 -1 -685 77 -497 274
-916 608 -1288 310 -345 737 -602 1199 -722 201 -53 369 -73 600 -73 300 1
523 37 793 129 682 234 1239 778 1492 1459 52 138 110 374 131 530 20 156 23
464 5 610 -106 847 -623 1568 -1384 1930 -213 101 -479 179 -717 210 -111 15
-371 25 -455 19z m480 -617 c333 -63 628 -196 870 -390 112 -90 297 -285 378
-398 86 -121 203 -353 250 -497 160 -491 122 -1003 -108 -1462 -183 -367 -493
-671 -870 -855 -258 -127 -492 -184 -785 -192 -351 -10 -630 54 -940 214 -562
290 -942 840 -1020 1476 -16 123 -8 421 14 537 24 127 53 233 93 340 246 658
814 1120 1513 1231 142 22 477 20 605 -4z"/>
<path d="M2353 3981 c-601 -332 -883 -558 -1101 -883 -144 -214 -222 -423
-263 -703 -18 -130 -20 -177 -16 -413 3 -147 12 -341 20 -432 15 -161 16 -165
44 -187 15 -13 33 -23 38 -23 6 0 29 20 52 44 29 30 46 60 57 97 8 30 38 142
66 249 113 422 226 657 424 883 180 205 451 390 727 497 198 76 259 97 259 90
0 -20 -61 -523 -71 -580 -6 -38 -18 -73 -30 -86 -10 -11 -19 -26 -19 -34 0
-17 -110 -223 -173 -325 -147 -236 -330 -415 -642 -627 -131 -90 -392 -248
-409 -248 -7 0 -33 -21 -59 -47 -45 -45 -59 -73 -36 -73 6 0 9 -6 6 -14 -7
-19 12 -36 41 -36 13 0 76 -13 141 -30 432 -109 781 -104 1210 16 269 76 553
202 756 337 206 137 412 341 590 582 98 132 285 424 285 444 0 13 -29 31 -107
68 -188 88 -288 112 -564 134 l-156 12 28 121 c16 67 35 167 44 222 16 110 20
350 6 373 -7 11 -31 13 -127 7 -132 -8 -215 -20 -476 -69 -98 -19 -180 -32
-183 -29 -3 3 -5 42 -5 88 0 128 -27 356 -50 416 -36 96 -127 235 -154 235 -8
0 -77 -35 -153 -76z"/>
</g>
</svg>
